G04 #@! TF.GenerationSoftware,KiCad,Pcbnew,5.0.1-33cea8e~68~ubuntu18.04.1*
G04 #@! TF.CreationDate,2018-11-27T00:32:40+01:00*
G04 #@! TF.ProjectId,AS5600_moveo_2,4153353630305F6D6F76656F5F322E6B,rev?*
G04 #@! TF.SameCoordinates,Original*
G04 #@! TF.FileFunction,Legend,Top*
G04 #@! TF.FilePolarity,Positive*
%FSLAX46Y46*%
G04 Gerber Fmt 4.6, Leading zero omitted, Abs format (unit mm)*
G04 Created by KiCad (PCBNEW 5.0.1-33cea8e~68~ubuntu18.04.1) date mar 27 nov 2018 00:32:40 CET*
%MOMM*%
%LPD*%
G01*
G04 APERTURE LIST*
%ADD10C,0.100000*%
%ADD11C,0.120000*%
%ADD12C,0.150000*%
G04 APERTURE END LIST*
D10*
X151256180Y-83893742D02*
X151279990Y-83822314D01*
X151279990Y-83703266D01*
X151256180Y-83655647D01*
X151232371Y-83631838D01*
X151184752Y-83608028D01*
X151137133Y-83608028D01*
X151089514Y-83631838D01*
X151065704Y-83655647D01*
X151041895Y-83703266D01*
X151018085Y-83798504D01*
X150994276Y-83846123D01*
X150970466Y-83869933D01*
X150922847Y-83893742D01*
X150875228Y-83893742D01*
X150827609Y-83869933D01*
X150803800Y-83846123D01*
X150779990Y-83798504D01*
X150779990Y-83679457D01*
X150803800Y-83608028D01*
X151279990Y-83393742D02*
X150779990Y-83393742D01*
X150779990Y-83274695D01*
X150803800Y-83203266D01*
X150851419Y-83155647D01*
X150899038Y-83131838D01*
X150994276Y-83108028D01*
X151065704Y-83108028D01*
X151160942Y-83131838D01*
X151208561Y-83155647D01*
X151256180Y-83203266D01*
X151279990Y-83274695D01*
X151279990Y-83393742D01*
X151137133Y-82917552D02*
X151137133Y-82679457D01*
X151279990Y-82965171D02*
X150779990Y-82798504D01*
X151279990Y-82631838D01*
X151256180Y-86650438D02*
X151279990Y-86579009D01*
X151279990Y-86459961D01*
X151256180Y-86412342D01*
X151232371Y-86388533D01*
X151184752Y-86364723D01*
X151137133Y-86364723D01*
X151089514Y-86388533D01*
X151065704Y-86412342D01*
X151041895Y-86459961D01*
X151018085Y-86555200D01*
X150994276Y-86602819D01*
X150970466Y-86626628D01*
X150922847Y-86650438D01*
X150875228Y-86650438D01*
X150827609Y-86626628D01*
X150803800Y-86602819D01*
X150779990Y-86555200D01*
X150779990Y-86436152D01*
X150803800Y-86364723D01*
X151232371Y-85864723D02*
X151256180Y-85888533D01*
X151279990Y-85959961D01*
X151279990Y-86007580D01*
X151256180Y-86079009D01*
X151208561Y-86126628D01*
X151160942Y-86150438D01*
X151065704Y-86174247D01*
X150994276Y-86174247D01*
X150899038Y-86150438D01*
X150851419Y-86126628D01*
X150803800Y-86079009D01*
X150779990Y-86007580D01*
X150779990Y-85959961D01*
X150803800Y-85888533D01*
X150827609Y-85864723D01*
X151279990Y-85412342D02*
X151279990Y-85650438D01*
X150779990Y-85650438D01*
X150803800Y-89103152D02*
X150779990Y-89150771D01*
X150779990Y-89222200D01*
X150803800Y-89293628D01*
X150851419Y-89341247D01*
X150899038Y-89365057D01*
X150994276Y-89388866D01*
X151065704Y-89388866D01*
X151160942Y-89365057D01*
X151208561Y-89341247D01*
X151256180Y-89293628D01*
X151279990Y-89222200D01*
X151279990Y-89174580D01*
X151256180Y-89103152D01*
X151232371Y-89079342D01*
X151065704Y-89079342D01*
X151065704Y-89174580D01*
X151279990Y-88865057D02*
X150779990Y-88865057D01*
X151279990Y-88579342D01*
X150779990Y-88579342D01*
X151279990Y-88341247D02*
X150779990Y-88341247D01*
X150779990Y-88222200D01*
X150803800Y-88150771D01*
X150851419Y-88103152D01*
X150899038Y-88079342D01*
X150994276Y-88055533D01*
X151065704Y-88055533D01*
X151160942Y-88079342D01*
X151208561Y-88103152D01*
X151256180Y-88150771D01*
X151279990Y-88222200D01*
X151279990Y-88341247D01*
X150779990Y-80892638D02*
X150779990Y-81130733D01*
X151018085Y-81154542D01*
X150994276Y-81130733D01*
X150970466Y-81083114D01*
X150970466Y-80964066D01*
X150994276Y-80916447D01*
X151018085Y-80892638D01*
X151065704Y-80868828D01*
X151184752Y-80868828D01*
X151232371Y-80892638D01*
X151256180Y-80916447D01*
X151279990Y-80964066D01*
X151279990Y-81083114D01*
X151256180Y-81130733D01*
X151232371Y-81154542D01*
X150779990Y-80725971D02*
X151279990Y-80559304D01*
X150779990Y-80392638D01*
D11*
G04 #@! TO.C,J1*
X151946300Y-89836300D02*
X154606300Y-89836300D01*
X151946300Y-82156300D02*
X151946300Y-89836300D01*
X154606300Y-82156300D02*
X154606300Y-89836300D01*
X151946300Y-82156300D02*
X154606300Y-82156300D01*
X151946300Y-80886300D02*
X151946300Y-79556300D01*
X151946300Y-79556300D02*
X153276300Y-79556300D01*
D12*
X152803266Y-77608180D02*
X152803266Y-78322466D01*
X152755647Y-78465323D01*
X152660409Y-78560561D01*
X152517552Y-78608180D01*
X152422314Y-78608180D01*
X153803266Y-78608180D02*
X153231838Y-78608180D01*
X153517552Y-78608180D02*
X153517552Y-77608180D01*
X153422314Y-77751038D01*
X153327076Y-77846276D01*
X153231838Y-77893895D01*
G04 #@! TD*
M02*
