G04 #@! TF.GenerationSoftware,KiCad,Pcbnew,5.0.1-33cea8e~68~ubuntu18.04.1*
G04 #@! TF.CreationDate,2018-11-27T00:32:40+01:00*
G04 #@! TF.ProjectId,AS5600_moveo_2,4153353630305F6D6F76656F5F322E6B,rev?*
G04 #@! TF.SameCoordinates,Original*
G04 #@! TF.FileFunction,Legend,Bot*
G04 #@! TF.FilePolarity,Positive*
%FSLAX46Y46*%
G04 Gerber Fmt 4.6, Leading zero omitted, Abs format (unit mm)*
G04 Created by KiCad (PCBNEW 5.0.1-33cea8e~68~ubuntu18.04.1) date mar 27 nov 2018 00:32:40 CET*
%MOMM*%
%LPD*%
G01*
G04 APERTURE LIST*
%ADD10C,0.100000*%
%ADD11C,0.120000*%
%ADD12C,0.150000*%
G04 APERTURE END LIST*
D10*
X144706185Y-88122890D02*
X144658566Y-88099080D01*
X144634757Y-88075271D01*
X144610947Y-88027652D01*
X144610947Y-87884795D01*
X144634757Y-87837176D01*
X144658566Y-87813366D01*
X144706185Y-87789557D01*
X144777614Y-87789557D01*
X144825233Y-87813366D01*
X144849042Y-87837176D01*
X144872852Y-87884795D01*
X144872852Y-88027652D01*
X144849042Y-88075271D01*
X144825233Y-88099080D01*
X144777614Y-88122890D01*
X144706185Y-88122890D01*
D11*
G04 #@! TO.C,C1*
X141507800Y-88743164D02*
X141507800Y-87539036D01*
X143327800Y-88743164D02*
X143327800Y-87539036D01*
G04 #@! TO.C,C2*
X143289700Y-80235036D02*
X143289700Y-81439164D01*
X141469700Y-80235036D02*
X141469700Y-81439164D01*
G04 #@! TO.C,R1*
X147264036Y-88904400D02*
X148468164Y-88904400D01*
X147264036Y-90724400D02*
X148468164Y-90724400D01*
G04 #@! TO.C,R2*
X148468164Y-80132600D02*
X147264036Y-80132600D01*
X148468164Y-78312600D02*
X147264036Y-78312600D01*
D12*
G04 #@! TO.C,U1*
X145587900Y-87207800D02*
X145587900Y-87157800D01*
X149737900Y-87207800D02*
X149737900Y-87062800D01*
X149737900Y-82057800D02*
X149737900Y-82202800D01*
X145587900Y-82057800D02*
X145587900Y-82202800D01*
X145587900Y-87207800D02*
X149737900Y-87207800D01*
X145587900Y-82057800D02*
X149737900Y-82057800D01*
X145587900Y-87157800D02*
X144187900Y-87157800D01*
G04 #@! TO.C,C1*
D10*
X142558271Y-88060866D02*
X142582080Y-88037057D01*
X142605890Y-87965628D01*
X142605890Y-87918009D01*
X142582080Y-87846580D01*
X142534461Y-87798961D01*
X142486842Y-87775152D01*
X142391604Y-87751342D01*
X142320176Y-87751342D01*
X142224938Y-87775152D01*
X142177319Y-87798961D01*
X142129700Y-87846580D01*
X142105890Y-87918009D01*
X142105890Y-87965628D01*
X142129700Y-88037057D01*
X142153509Y-88060866D01*
X142605890Y-88537057D02*
X142605890Y-88251342D01*
X142605890Y-88394200D02*
X142105890Y-88394200D01*
X142177319Y-88346580D01*
X142224938Y-88298961D01*
X142248747Y-88251342D01*
X141005690Y-88437190D02*
X141005690Y-88151476D01*
X141005690Y-88294333D02*
X140505690Y-88294333D01*
X140577119Y-88246714D01*
X140624738Y-88199095D01*
X140648547Y-88151476D01*
X140505690Y-88746714D02*
X140505690Y-88794333D01*
X140529500Y-88841952D01*
X140553309Y-88865761D01*
X140600928Y-88889571D01*
X140696166Y-88913380D01*
X140815214Y-88913380D01*
X140910452Y-88889571D01*
X140958071Y-88865761D01*
X140981880Y-88841952D01*
X141005690Y-88794333D01*
X141005690Y-88746714D01*
X140981880Y-88699095D01*
X140958071Y-88675285D01*
X140910452Y-88651476D01*
X140815214Y-88627666D01*
X140696166Y-88627666D01*
X140600928Y-88651476D01*
X140553309Y-88675285D01*
X140529500Y-88699095D01*
X140505690Y-88746714D01*
X140505690Y-89222904D02*
X140505690Y-89270523D01*
X140529500Y-89318142D01*
X140553309Y-89341952D01*
X140600928Y-89365761D01*
X140696166Y-89389571D01*
X140815214Y-89389571D01*
X140910452Y-89365761D01*
X140958071Y-89341952D01*
X140981880Y-89318142D01*
X141005690Y-89270523D01*
X141005690Y-89222904D01*
X140981880Y-89175285D01*
X140958071Y-89151476D01*
X140910452Y-89127666D01*
X140815214Y-89103857D01*
X140696166Y-89103857D01*
X140600928Y-89127666D01*
X140553309Y-89151476D01*
X140529500Y-89175285D01*
X140505690Y-89222904D01*
X140672357Y-89603857D02*
X141005690Y-89603857D01*
X140719976Y-89603857D02*
X140696166Y-89627666D01*
X140672357Y-89675285D01*
X140672357Y-89746714D01*
X140696166Y-89794333D01*
X140743785Y-89818142D01*
X141005690Y-89818142D01*
X140743785Y-90222904D02*
X140743785Y-90056238D01*
X141005690Y-90056238D02*
X140505690Y-90056238D01*
X140505690Y-90294333D01*
X140919971Y-86473366D02*
X140943780Y-86449557D01*
X140967590Y-86378128D01*
X140967590Y-86330509D01*
X140943780Y-86259080D01*
X140896161Y-86211461D01*
X140848542Y-86187652D01*
X140753304Y-86163842D01*
X140681876Y-86163842D01*
X140586638Y-86187652D01*
X140539019Y-86211461D01*
X140491400Y-86259080D01*
X140467590Y-86330509D01*
X140467590Y-86378128D01*
X140491400Y-86449557D01*
X140515209Y-86473366D01*
X140967590Y-86949557D02*
X140967590Y-86663842D01*
X140967590Y-86806700D02*
X140467590Y-86806700D01*
X140539019Y-86759080D01*
X140586638Y-86711461D01*
X140610447Y-86663842D01*
G04 #@! TO.C,C2*
X140983471Y-80006766D02*
X141007280Y-79982957D01*
X141031090Y-79911528D01*
X141031090Y-79863909D01*
X141007280Y-79792480D01*
X140959661Y-79744861D01*
X140912042Y-79721052D01*
X140816804Y-79697242D01*
X140745376Y-79697242D01*
X140650138Y-79721052D01*
X140602519Y-79744861D01*
X140554900Y-79792480D01*
X140531090Y-79863909D01*
X140531090Y-79911528D01*
X140554900Y-79982957D01*
X140578709Y-80006766D01*
X140578709Y-80197242D02*
X140554900Y-80221052D01*
X140531090Y-80268671D01*
X140531090Y-80387719D01*
X140554900Y-80435338D01*
X140578709Y-80459147D01*
X140626328Y-80482957D01*
X140673947Y-80482957D01*
X140745376Y-80459147D01*
X141031090Y-80173433D01*
X141031090Y-80482957D01*
X141043790Y-81633980D02*
X141043790Y-81348266D01*
X141043790Y-81491123D02*
X140543790Y-81491123D01*
X140615219Y-81443504D01*
X140662838Y-81395885D01*
X140686647Y-81348266D01*
X140710457Y-82062552D02*
X141043790Y-82062552D01*
X140710457Y-81848266D02*
X140972361Y-81848266D01*
X141019980Y-81872076D01*
X141043790Y-81919695D01*
X141043790Y-81991123D01*
X141019980Y-82038742D01*
X140996171Y-82062552D01*
X140781885Y-82467314D02*
X140781885Y-82300647D01*
X141043790Y-82300647D02*
X140543790Y-82300647D01*
X140543790Y-82538742D01*
G04 #@! TO.C,R1*
X149460733Y-91704290D02*
X149627400Y-91466195D01*
X149746447Y-91704290D02*
X149746447Y-91204290D01*
X149555971Y-91204290D01*
X149508352Y-91228100D01*
X149484542Y-91251909D01*
X149460733Y-91299528D01*
X149460733Y-91370957D01*
X149484542Y-91418576D01*
X149508352Y-91442385D01*
X149555971Y-91466195D01*
X149746447Y-91466195D01*
X148984542Y-91704290D02*
X149270257Y-91704290D01*
X149127400Y-91704290D02*
X149127400Y-91204290D01*
X149175019Y-91275719D01*
X149222638Y-91323338D01*
X149270257Y-91347147D01*
X146823857Y-91370957D02*
X146823857Y-91704290D01*
X146942904Y-91180480D02*
X147061952Y-91537623D01*
X146752428Y-91537623D01*
X146561952Y-91704290D02*
X146561952Y-91204290D01*
X146276238Y-91704290D02*
X146490523Y-91418576D01*
X146276238Y-91204290D02*
X146561952Y-91490004D01*
X146109571Y-91204290D02*
X145776238Y-91204290D01*
X145990523Y-91704290D01*
X147949433Y-90040590D02*
X148116100Y-89802495D01*
X148235147Y-90040590D02*
X148235147Y-89540590D01*
X148044671Y-89540590D01*
X147997052Y-89564400D01*
X147973242Y-89588209D01*
X147949433Y-89635828D01*
X147949433Y-89707257D01*
X147973242Y-89754876D01*
X147997052Y-89778685D01*
X148044671Y-89802495D01*
X148235147Y-89802495D01*
X147473242Y-90040590D02*
X147758957Y-90040590D01*
X147616100Y-90040590D02*
X147616100Y-89540590D01*
X147663719Y-89612019D01*
X147711338Y-89659638D01*
X147758957Y-89683447D01*
G04 #@! TO.C,R2*
X147151633Y-77861290D02*
X147318300Y-77623195D01*
X147437347Y-77861290D02*
X147437347Y-77361290D01*
X147246871Y-77361290D01*
X147199252Y-77385100D01*
X147175442Y-77408909D01*
X147151633Y-77456528D01*
X147151633Y-77527957D01*
X147175442Y-77575576D01*
X147199252Y-77599385D01*
X147246871Y-77623195D01*
X147437347Y-77623195D01*
X146961157Y-77408909D02*
X146937347Y-77385100D01*
X146889728Y-77361290D01*
X146770680Y-77361290D01*
X146723061Y-77385100D01*
X146699252Y-77408909D01*
X146675442Y-77456528D01*
X146675442Y-77504147D01*
X146699252Y-77575576D01*
X146984966Y-77861290D01*
X146675442Y-77861290D01*
X149264557Y-77502557D02*
X149264557Y-77835890D01*
X149383604Y-77312080D02*
X149502652Y-77669223D01*
X149193128Y-77669223D01*
X149002652Y-77835890D02*
X149002652Y-77335890D01*
X148716938Y-77835890D02*
X148931223Y-77550176D01*
X148716938Y-77335890D02*
X149002652Y-77621604D01*
X148550271Y-77335890D02*
X148216938Y-77335890D01*
X148431223Y-77835890D01*
X147949433Y-79448790D02*
X148116100Y-79210695D01*
X148235147Y-79448790D02*
X148235147Y-78948790D01*
X148044671Y-78948790D01*
X147997052Y-78972600D01*
X147973242Y-78996409D01*
X147949433Y-79044028D01*
X147949433Y-79115457D01*
X147973242Y-79163076D01*
X147997052Y-79186885D01*
X148044671Y-79210695D01*
X148235147Y-79210695D01*
X147758957Y-78996409D02*
X147735147Y-78972600D01*
X147687528Y-78948790D01*
X147568480Y-78948790D01*
X147520861Y-78972600D01*
X147497052Y-78996409D01*
X147473242Y-79044028D01*
X147473242Y-79091647D01*
X147497052Y-79163076D01*
X147782766Y-79448790D01*
X147473242Y-79448790D01*
G04 #@! TO.C,U1*
D12*
X148424804Y-87585180D02*
X148424804Y-88394704D01*
X148377185Y-88489942D01*
X148329566Y-88537561D01*
X148234328Y-88585180D01*
X148043852Y-88585180D01*
X147948614Y-88537561D01*
X147900995Y-88489942D01*
X147853376Y-88394704D01*
X147853376Y-87585180D01*
X146853376Y-88585180D02*
X147424804Y-88585180D01*
X147139090Y-88585180D02*
X147139090Y-87585180D01*
X147234328Y-87728038D01*
X147329566Y-87823276D01*
X147424804Y-87870895D01*
D10*
X150186709Y-81216133D02*
X149948614Y-81216133D01*
X150234328Y-81358990D02*
X150067661Y-80858990D01*
X149900995Y-81358990D01*
X149758138Y-81335180D02*
X149686709Y-81358990D01*
X149567661Y-81358990D01*
X149520042Y-81335180D01*
X149496233Y-81311371D01*
X149472423Y-81263752D01*
X149472423Y-81216133D01*
X149496233Y-81168514D01*
X149520042Y-81144704D01*
X149567661Y-81120895D01*
X149662900Y-81097085D01*
X149710519Y-81073276D01*
X149734328Y-81049466D01*
X149758138Y-81001847D01*
X149758138Y-80954228D01*
X149734328Y-80906609D01*
X149710519Y-80882800D01*
X149662900Y-80858990D01*
X149543852Y-80858990D01*
X149472423Y-80882800D01*
X149020042Y-80858990D02*
X149258138Y-80858990D01*
X149281947Y-81097085D01*
X149258138Y-81073276D01*
X149210519Y-81049466D01*
X149091471Y-81049466D01*
X149043852Y-81073276D01*
X149020042Y-81097085D01*
X148996233Y-81144704D01*
X148996233Y-81263752D01*
X149020042Y-81311371D01*
X149043852Y-81335180D01*
X149091471Y-81358990D01*
X149210519Y-81358990D01*
X149258138Y-81335180D01*
X149281947Y-81311371D01*
X148567661Y-80858990D02*
X148662900Y-80858990D01*
X148710519Y-80882800D01*
X148734328Y-80906609D01*
X148781947Y-80978038D01*
X148805757Y-81073276D01*
X148805757Y-81263752D01*
X148781947Y-81311371D01*
X148758138Y-81335180D01*
X148710519Y-81358990D01*
X148615280Y-81358990D01*
X148567661Y-81335180D01*
X148543852Y-81311371D01*
X148520042Y-81263752D01*
X148520042Y-81144704D01*
X148543852Y-81097085D01*
X148567661Y-81073276D01*
X148615280Y-81049466D01*
X148710519Y-81049466D01*
X148758138Y-81073276D01*
X148781947Y-81097085D01*
X148805757Y-81144704D01*
X148210519Y-80858990D02*
X148162900Y-80858990D01*
X148115280Y-80882800D01*
X148091471Y-80906609D01*
X148067661Y-80954228D01*
X148043852Y-81049466D01*
X148043852Y-81168514D01*
X148067661Y-81263752D01*
X148091471Y-81311371D01*
X148115280Y-81335180D01*
X148162900Y-81358990D01*
X148210519Y-81358990D01*
X148258138Y-81335180D01*
X148281947Y-81311371D01*
X148305757Y-81263752D01*
X148329566Y-81168514D01*
X148329566Y-81049466D01*
X148305757Y-80954228D01*
X148281947Y-80906609D01*
X148258138Y-80882800D01*
X148210519Y-80858990D01*
X147734328Y-80858990D02*
X147686709Y-80858990D01*
X147639090Y-80882800D01*
X147615280Y-80906609D01*
X147591471Y-80954228D01*
X147567661Y-81049466D01*
X147567661Y-81168514D01*
X147591471Y-81263752D01*
X147615280Y-81311371D01*
X147639090Y-81335180D01*
X147686709Y-81358990D01*
X147734328Y-81358990D01*
X147781947Y-81335180D01*
X147805757Y-81311371D01*
X147829566Y-81263752D01*
X147853376Y-81168514D01*
X147853376Y-81049466D01*
X147829566Y-80954228D01*
X147805757Y-80906609D01*
X147781947Y-80882800D01*
X147734328Y-80858990D01*
X147353376Y-81168514D02*
X146972423Y-81168514D01*
X146758138Y-81216133D02*
X146520042Y-81216133D01*
X146805757Y-81358990D02*
X146639090Y-80858990D01*
X146472423Y-81358990D01*
X146329566Y-81335180D02*
X146258138Y-81358990D01*
X146139090Y-81358990D01*
X146091471Y-81335180D01*
X146067661Y-81311371D01*
X146043852Y-81263752D01*
X146043852Y-81216133D01*
X146067661Y-81168514D01*
X146091471Y-81144704D01*
X146139090Y-81120895D01*
X146234328Y-81097085D01*
X146281947Y-81073276D01*
X146305757Y-81049466D01*
X146329566Y-81001847D01*
X146329566Y-80954228D01*
X146305757Y-80906609D01*
X146281947Y-80882800D01*
X146234328Y-80858990D01*
X146115280Y-80858990D01*
X146043852Y-80882800D01*
X145734328Y-80858990D02*
X145639090Y-80858990D01*
X145591471Y-80882800D01*
X145543852Y-80930419D01*
X145520042Y-81025657D01*
X145520042Y-81192323D01*
X145543852Y-81287561D01*
X145591471Y-81335180D01*
X145639090Y-81358990D01*
X145734328Y-81358990D01*
X145781947Y-81335180D01*
X145829566Y-81287561D01*
X145853376Y-81192323D01*
X145853376Y-81025657D01*
X145829566Y-80930419D01*
X145781947Y-80882800D01*
X145734328Y-80858990D01*
X145377185Y-80858990D02*
X145091471Y-80858990D01*
X145234328Y-81358990D02*
X145234328Y-80858990D01*
G04 #@! TD*
M02*
